# xmcd CD database file
#
# Track frame offsets:
#	150
#	11488
#	27347
#	43262
#	49777
#	65720
#	78681
#	84956
#	90845
#	105398
#	117736
#	134605
#	147835
#	162016
#
# Disc length: 2251 seconds
#
# Revision: 4
# Processed by: cddbd v1.5.2PL0 Copyright (c) Steve Scherf et al.
# Submitted via: CDex 1.74
#
DISCID=b708c90e
DTITLE=Various Artist - The Great Gatsby Jazz Recordings: A Selection of Yellow Cocktail Music
DYEAR=2013
DGENRE=Soundtracks
TTITLE0=The Bryan Ferry Orchestra - Young and Beautiful
TTITLE1=The Bryan Ferry Orchestra - Back to Black
TTITLE2=Jelly Roll Morton - New Orleans Bump (Monrovia)
TTITLE3=The Bryan Ferry Orchestra - Nick the Neighbor
TTITLE4=The Bryan Ferry Orchestra - Empire State of Mind (Part II) - Broken Down
TTITLE5=Irving Aaronson and His Commanders - Let's Misbehave
TTITLE6=The Bryan Ferry Orchestra - 100$ Bill
TTITLE7=The Bryan Ferry Orchestra - Crazy in Love
TTITLE8=Louis Armstrong - Ain't Misbehavin'
TTITLE9=The Bryan Ferry Orchestra - Love is the Drug
TTITLE10=The Bryan Ferry Orchestra - Bang Bang
TTITLE11=Andrea Martin and The Bryan Ferry Orchestra - Oh! You Have No Idea
TTITLE12=The Bryan Ferry Orchestra - Daisy's Theme
TTITLE13=The Bryan Ferry Orchestra - Can't Repeat the Past
EXTD=YEAR: 2013
EXTT0=
EXTT1=
EXTT2=
EXTT3=
EXTT4=
EXTT5=
EXTT6=
EXTT7=
EXTT8=
EXTT9=
EXTT10=
EXTT11=
EXTT12=
EXTT13=
PLAYORDER=
